<?xml version="1.0" encoding="UTF-8" standalone="no"?>
<svg
   xmlns:sketch="http://www.bohemiancoding.com/sketch/ns"
   xmlns:dc="http://purl.org/dc/elements/1.1/"
   xmlns:cc="http://creativecommons.org/ns#"
   xmlns:rdf="http://www.w3.org/1999/02/22-rdf-syntax-ns#"
   xmlns:svg="http://www.w3.org/2000/svg"
   xmlns="http://www.w3.org/2000/svg"
   width="256pt"
   height="256pt"
   viewBox="0 0 256 256"
   version="1.1"
   id="svg9">
  <metadata
     id="metadata15">
    <rdf:RDF>
      <cc:Work
         rdf:about="">
        <dc:format>image/svg+xml</dc:format>
        <dc:type
           rdf:resource="http://purl.org/dc/dcmitype/StillImage" />
        <dc:title></dc:title>
      </cc:Work>
    </rdf:RDF>
  </metadata>
  <defs
     id="defs13" />
  <path
     style="fill:#f6c574;fill-opacity:1;fill-rule:nonzero;stroke:none"
     d="m 128.12891,-0.164062 c -34.421879,0 -66.050785,13.121093 -90.445316,37.523437 C 13.289062,61.765625 0.171875,93.40625 0.171875,127.84375 c 0,34.4375 13.117187,66.07812 37.511719,90.48047 20.484375,20.49219 46.089844,33.03125 75.062496,36.76172 11.37891,1.46875 28.82032,0.72265 41.25391,-1.75391 44.76172,-8.92187 83.00391,-43.60547 96.40625,-87.4375 14.0625,-45.98437 2.00391,-94.687499 -31.82813,-128.535155 C 194.18359,12.957031 162.55469,-0.164062 128.12891,-0.164062 Z M 126.96484,9.875 c 18.51953,-0.167969 37.02344,4.027344 53.89063,12.480469 23.11328,11.585937 41.14062,29.617187 52.72265,52.742187 16.64454,33.242184 16.64454,72.250004 0,105.488284 -5.80859,11.60156 -11.59765,19.7539 -20.8125,29.33203 -19.5039,20.26953 -45.32812,32.625 -74.04687,35.43359 -21.42187,2.09375 -43.527344,-2.10547 -63.3125,-12.01953 C 63.8125,227.51953 55.660156,221.73047 46.085938,212.51172 9.15625,176.94531 -0.355469,121.10156 22.683594,75.097656 36.53125,47.445312 60.320312,26.527344 89.457031,16.382812 101.61719,12.148438 114.29688,9.988281 126.96484,9.875 Z m 0,0"
     id="path2" />
  <g
     style="fill:#000000;stroke:#f6c574;stroke-width:5.84473;stroke-miterlimit:4;stroke-dasharray:none;stroke-opacity:1"
     id="g866"
     transform="matrix(1.7938674,0,0,1.7933779,44.23169,66.817435)">
    <path
       d="M 16.878413,56.992 C 16.712624,56.99732 16.546172,57 16.379098,57 7.885457,57 1,50.0745 1,41.53147 1,34.32685 5.897003,28.27264 12.525775,26.55248 c -0.893137,-1.5905 -1.402824,-3.427706 -1.402824,-5.384648 0,-6.055821 4.88083,-10.965035 10.901639,-10.965035 1.808472,0 3.514092,0.442921 5.015484,1.226794 v 0 C 31.882376,5.112617 39.77745,1 48.69467,1 59.37528,1 68.5895,6.899982 72.84813,15.420989 v 0 c 4.39549,1.413605 7.5781,5.556044 7.5781,10.446141 0,1.02106 -0.13876,2.00952 -0.39834,2.94735 0.19675,-0.007 0.39444,-0.0103 0.59301,-0.0103 8.49364,0 15.3791,6.31184 15.3791,14.0979 0,7.78605 -6.88546,14.0979 -15.3791,14.0979 -0.006,0 -0.0115,0 -0.0173,-1e-5 -0.006,0 -0.0115,1e-5 -0.0173,1e-5 H 17.192334 c -0.105288,0 -0.20995,-0.003 -0.313921,-0.008 z"
       sketch:type="MSShapeGroup"
       id="path848"
       style="fill:none;fill-rule:evenodd;stroke:#f6c574;stroke-width:5.84473;stroke-miterlimit:4;stroke-dasharray:none;stroke-opacity:1" />
  </g>
</svg>
